<svg xmlns="http://www.w3.org/2000/svg"
shape-rendering="geometricPrecision"
width="4000" height="4000" viewBox="0 0 629 629">
  <metadata>null</metadata>

<path d="
M 28.923 352.571
C 31.985 342.112 47.784 342.44 50.907 352.655
C 51.555 354.776 51.313 357.178 50.716 359.281
C 47.407 370.943 29.583 368.22 28.629 356.579
C 28.521 355.272 28.553 353.838 28.923 352.571 Z"
opacity="1" fill="rgb(41,76,77)" fill-rule="evenodd" />
<path d="
M 30.325 374.556
C 30.399 374.362 30.473 374.169 30.548 373.975
C 31.836 372.854 33.365 373.053 34.976 373.063
C 37.818 373.08 40.659 373.128 43.502 373.125
C 45.539 373.122 47.412 372.924 49.063 374.282
C 49.709 375.311 49.343 376.922 49.337 378.091
C 49.321 381.395 49.309 384.7 49.302 388.005
C 49.277 400.171 49.274 412.337 49.251 424.504
C 49.245 427.973 49.22 431.444 49.238 434.913
C 49.245 436.186 49.615 438.021 48.855 439.117
C 47.514 440.443 45.759 440.267 43.999 440.25
C 40.702 440.219 37.405 440.231 34.109 440.205
C 32.531 440.192 30.588 439.99 30.213 438.095
C 29.729 435.652 30.2 432.764 30.219 430.28
C 30.259 425.187 30.265 420.094 30.262 415.001
C 30.256 406.001 30.258 397.001 30.262 388.001
C 30.264 383.577 29.866 378.956 30.325 374.556 Z"
opacity="1" fill="rgb(41,73,74)" fill-rule="evenodd" />
<path d="
M 63.306 348.453
C 63.771 347.427 65.074 347.111 66.075 347.073
C 68.346 346.987 70.628 347.044 72.899 347.038
C 82.756 347.014 92.728 346.457 102.563 347.349
C 112.677 348.265 122.751 352.321 130.145 359.4
C 144.616 373.255 147.362 397.927 139.017 415.767
C 137.492 419.028 135.573 422.131 133.29 424.919
C 121.087 439.82 101.617 440.141 84.001 440.167
C 79.031 440.175 74.061 440.177 69.091 440.208
C 67.459 440.219 64.841 440.733 63.612 439.374
C 62.388 438.021 63.027 435.025 63.044 433.348
C 63.093 428.231 63.08 423.113 63.078 417.997
C 63.074 401.498 63.104 384.999 63.095 368.5
C 63.093 363.847 63.087 359.195 63.065 354.543
C 63.056 352.725 62.536 350.15 63.306 348.453 Z
M 82.656 365.637
C 83.296 384.246 82.607 403 82.652 421.624
C 93.639 420.974 105.545 423.572 114.703 415.685
C 118.603 412.326 121.001 407.265 122.117 402.316
C 124.642 391.123 122.557 377.098 112.453 370.187
C 103.876 364.319 92.56 365.042 82.656 365.637 Z"
opacity="1" fill="rgb(43,74,75)" fill-rule="evenodd" />
<path d="
M 149.918 402.103
C 151.01 394.83 153.052 387.74 158.052 382.105
C 166.343 372.762 181.26 368.979 192.886 374.124
C 195.898 375.456 198.08 377.428 200.464 379.632
C 200.895 377.775 200.231 376.135 201.217 374.244
C 202.108 372.96 204.135 373.314 205.5 373.282
C 208.978 373.2 212.464 373.229 215.943 373.229
C 217.337 373.229 219.105 373.366 219.739 374.908
C 220.186 375.996 219.752 377.839 219.746 378.998
C 219.728 382.332 219.745 385.666 219.744 389
C 219.741 400.334 219.729 411.667 219.749 423.001
C 219.755 426.668 219.733 430.336 219.778 434.003
C 219.794 435.354 220.263 437.485 219.578 438.708
C 218.704 440.27 217.066 440.299 215.479 440.296
C 212.2 440.289 208.921 440.16 205.642 440.113
C 204.424 440.095 202.456 440.396 201.447 439.58
C 200.377 437.851 200.48 435.723 200.086 433.794
C 198.535 435.318 197.081 436.951 195.198 438.081
C 184.181 444.693 166.79 442.376 158.262 432.561
C 151.025 424.231 148.708 412.865 149.918 402.103 Z
M 169.416 403.1
C 168.392 410.035 170.173 417.82 176.096 422.114
C 181.634 426.129 190.563 425.847 195.697 421.232
C 198.621 418.603 200.127 414.874 200.705 411.063
C 201.772 404.034 199.976 395.914 193.978 391.527
C 189.322 388.121 181.8 387.779 176.902 390.931
C 172.769 393.592 170.126 398.295 169.416 403.1 Z"
opacity="1" fill="rgb(43,74,76)" fill-rule="evenodd" />
<path d="
M 151.172 459.246
C 156.975 458.912 164.864 457.951 169.96 461.329
C 177.341 466.22 175.579 478.879 168.19 482.755
C 163.401 485.268 156.643 483.933 151.45 483.926
C 150.539 483.256 151.139 479.194 151.136 478.003
C 151.117 471.751 151.157 465.497 151.172 459.246 Z
M 155.49 463.633
C 155.063 469.099 155.121 475.07 155.474 480.54
C 158.826 481.077 164.392 480.898 167.198 478.81
C 171.051 475.943 171.329 467.566 167.712 464.426
C 164.722 461.831 159.64 462.819 156.007 462.592
C 155.435 463.257 155.571 462.894 155.49 463.633 Z"
opacity="1" fill="rgb(45,77,77)" fill-rule="evenodd" />
<path d="
M 179.946 483.048
C 182.73 475.056 186.161 466.872 189.861 459.265
C 191.551 459.107 193.356 459.018 195.047 459.197
C 198.436 467.29 203.221 475.438 205.458 483.936
C 204.035 484.051 202.596 484.054 201.18 484.178
C 200.518 482.317 199.678 480.509 198.733 478.775
C 197.926 478.118 196.274 478.37 195.282 478.376
C 192.364 478.393 189.422 478.233 186.508 478.367
C 185.201 480.036 184.964 482.253 183.825 483.981
C 182.976 484.073 180.235 484.373 179.622 483.846
C 179.73 483.58 179.838 483.314 179.946 483.048 Z
M 187.808 474.722
C 187.795 474.821 187.782 474.92 187.769 475.02
C 190.799 475.159 194.305 474.218 197.272 474.829
C 196.298 471.93 194.938 469.114 193.779 466.282
C 193.442 465.457 192.667 463.244 192.05 464.534
C 190.739 467.884 189.474 471.535 187.808 474.722 Z"
opacity="1" fill="rgb(46,81,82)" fill-rule="evenodd" />
<path d="
M 212.284 459.27
C 214.136 459.255 216.35 458.769 218.148 459.267
C 221.12 465.246 223.088 471.716 226.072 477.674
C 227.202 476.546 227.617 473.827 228.239 472.333
C 230.054 467.969 231.8 463.488 233.925 459.265
C 235.644 458.839 238.353 458.84 240.082 459.238
C 239.557 463.972 240.188 469.209 240.207 473.997
C 240.219 477.222 239.655 481.054 240.296 484.207
C 238.897 484.214 237.5 484.171 236.101 484.162
C 235.229 479.683 235.868 474.54 235.848 469.984
C 235.844 469.044 236.499 465.763 235.604 465.453
C 232.538 471.019 230.149 477.661 228.13 483.689
C 227.505 484.22 225.41 483.796 224.585 483.878
C 223.596 483.2 223.153 480.82 222.676 479.712
C 221.295 476.505 219.831 473.315 218.538 470.072
C 218.014 468.758 217.55 466.484 216.49 465.538
C 216.478 471.749 216.624 477.99 216.355 484.197
C 215.066 484.207 213.781 484.032 212.507 483.856
C 212.001 481.024 212.366 477.871 212.378 474.996
C 212.398 469.759 212.37 464.505 212.284 459.27 Z"
opacity="1" fill="rgb(46,80,81)" fill-rule="evenodd" />
<path d="
M 217.117 143.206
C 223.637 142.686 230.314 143.173 236.857 143.077
C 237.784 145.245 236.617 147.632 238.215 149.836
C 241.17 153.912 245.989 152.776 247.962 148.604
C 248.7 147.044 248.264 145.063 248.464 143.389
C 250.144 143.401 251.817 143.298 253.485 143.57
C 253.527 145.548 253.473 148.131 254.658 149.817
C 256.954 153.083 261.473 153.005 263.428 149.498
C 264.473 147.623 264.239 145.444 264.269 143.381
C 265.316 143.388 268.623 142.894 269.28 143.701
C 269.223 145.536 269.304 147.663 270.195 149.313
C 271.731 152.156 275.792 153.262 278.295 150.986
C 280.69 148.807 279.979 146.282 280.529 143.465
C 282.249 143.532 283.954 143.442 285.668 143.674
C 285.635 145.44 285.697 147.657 286.472 149.281
C 287.913 152.301 292.349 153.371 294.699 150.763
C 296.415 148.859 296.496 145.933 296.358 143.508
C 297.97 143.445 299.561 143.58 301.173 143.593
C 301.676 144.242 301.442 145.627 301.512 146.464
C 301.639 148 302.121 149.419 303.186 150.56
C 305.646 153.194 309.77 152.575 311.568 149.565
C 312.583 147.865 312.592 145.552 312.548 143.636
C 314.282 143.527 316.025 143.712 317.747 143.577
C 317.56 145.764 317.906 148.796 319.381 150.508
C 321.606 153.09 325.942 152.597 327.566 149.609
C 328.456 147.971 328.501 145.71 328.469 143.89
C 329.469 142.993 331.765 143.456 333.051 143.601
C 334.298 146.308 333.292 149.074 336.034 151.172
C 336.635 151.632 337.274 151.956 338.02 152.098
C 343.186 153.084 344.93 147.821 344.514 143.663
C 346.152 143.554 348.125 143.305 349.721 143.713
C 349.594 145.577 349.785 148.128 350.702 149.789
C 352.142 152.401 356.15 153.133 358.371 151.091
C 360.839 148.822 359.287 145.922 360.639 143.492
C 362.149 143.543 363.658 143.539 365.169 143.616
C 366.367 145.81 365.208 148.368 367.151 150.549
C 369.59 153.287 373.686 152.725 375.474 149.627
C 376.569 147.731 376.356 145.65 376.438 143.552
C 378.025 143.557 379.616 143.56 381.2 143.686
C 381.63 144.408 381.381 145.788 381.414 146.632
C 381.483 148.366 382.14 150.088 383.485 151.232
C 386.215 153.553 390.537 151.881 391.847 148.791
C 392.542 147.153 392.362 144.947 392.157 143.222
C 398.86 142.829 405.67 143.222 412.389 143.095
C 412.701 147.845 412.297 152.728 412.3 157.494
C 412.301 158.411 412.815 161.861 412.044 162.364
C 409.968 162.461 407.426 161.93 405.618 163.171
C 402.088 165.593 402.608 171.136 406.692 172.744
C 408.062 173.284 409.833 172.853 411.262 172.803
C 411.765 173.973 411.606 176.557 411.378 177.791
C 409.652 177.811 407.297 177.377 405.688 178.109
C 401.959 179.804 402.718 184.112 405.454 186.301
C 406.47 187.113 407.568 187.409 408.859 187.377
C 409.52 187.361 410.888 186.999 411.399 187.445
C 411.355 188.81 412.015 191.632 411.396 192.764
C 409.743 192.819 407.56 192.108 406.015 192.841
C 401.848 194.818 402.09 200.222 406.286 202.019
C 407.847 202.688 409.585 202.104 411.21 202.29
C 411.191 203.958 410.98 206.067 411.371 207.686
C 409.042 207.022 406.039 207.028 404.206 208.771
C 401.729 211.126 403.214 215.503 406.144 216.801
C 407.625 217.458 409.714 217.1 411.258 216.915
C 411.212 218.787 411.109 220.95 411.38 222.799
C 408.429 222.812 405.651 221.779 403.356 224.481
C 402.58 225.395 402.801 226.849 403.119 227.911
C 404.396 232.181 407.454 232.351 411.266 232.194
C 411.145 233.748 411.033 235.865 411.425 237.366
C 409.092 237.813 406.947 236.658 404.824 238.225
C 401.561 240.633 402.906 245.358 406.454 246.794
C 407.935 247.393 409.616 246.811 411.138 246.779
C 411.977 247.84 410.938 250.89 411.18 252.282
C 407.946 252.28 405.86 251.011 403.438 254
C 403.128 254.752 403.254 255.596 403.242 256.397
C 402.228 256.468 400.212 254.348 399.505 253.643
C 399.736 251.953 401.196 250.692 402.241 249.441
C 402.184 249.106 401.421 248.755 401.162 248.505
C 400.601 247.964 400.191 247.258 399.878 246.553
C 398.573 243.609 398.523 239.617 400.475 236.923
C 401.18 235.949 402.153 235.368 402.92 234.491
C 398.25 233.336 398.217 225.586 400.192 222.328
C 400.878 221.196 402.006 220.52 402.772 219.494
C 397.457 216.936 398.18 208.086 402.469 204.896
C 401.971 204.151 401.189 203.598 400.67 202.848
C 399.049 200.503 398.625 197.566 399.318 194.833
C 399.664 193.471 400.331 192.318 401.33 191.323
C 401.675 190.98 402.092 190.722 402.517 190.49
C 402.675 190.404 403.368 190.242 403.279 190.081
C 399.08 187.983 398.053 181.798 400.238 177.91
C 400.8 176.909 402.643 175.998 402.926 175.1
C 400.524 174.325 399.48 170.766 399.377 168.561
C 399.134 163.324 403.133 157.768 408.7 157.686
C 409.096 154.187 408.66 150.549 408.84 147.031
C 406.481 146.798 404.086 146.994 401.717 146.962
C 400.161 146.941 398.324 146.702 396.844 147.24
C 395.658 153.313 389.235 158.629 382.843 156.026
C 381.634 155.533 380.734 154.697 379.876 153.741
C 379.631 153.468 378.889 152.307 378.596 152.302
C 376.42 156.436 370.373 157.666 366.454 155.366
C 365.336 154.71 364.111 152.369 363.038 152.146
C 360.468 155.989 355.129 158.09 350.887 155.592
C 349.946 155.037 349.159 154.289 348.489 153.43
C 348.128 152.967 347.778 152.059 347.197 151.902
C 344.647 155.881 339.108 157.915 334.761 155.477
C 333.744 154.907 331.822 152.131 330.976 152.195
C 328.241 155.955 322.8 157.977 318.54 155.33
C 317.519 154.696 316.822 153.839 316.117 152.883
C 315.886 152.57 315.594 151.829 315.226 151.711
C 312.721 155.939 307.058 157.802 302.604 155.434
C 301.562 154.88 299.861 152.309 298.947 152.295
C 296.278 155.887 291.311 158.141 287.081 155.647
C 285.944 154.976 284.918 153.919 284.107 152.886
C 283.736 152.414 283.725 151.861 283.054 151.772
C 280.519 155.895 275.05 157.813 270.6 155.471
C 269.247 154.76 268.102 152.175 266.828 151.897
C 264.606 156.166 258.774 157.98 254.578 155.48
C 253.174 154.644 252.383 152.475 251.113 151.843
C 248.221 156.366 241.813 158.107 237.334 154.634
C 234.762 152.64 233.682 150.132 232.745 147.13
C 228.759 147.266 224.693 146.849 220.723 147.25
C 220.705 150.561 220.695 153.867 220.732 157.177
C 222.204 158.001 223.945 158.105 225.396 159.102
C 229.199 161.715 230.934 166.947 229.298 171.307
C 228.676 172.966 227.325 173.684 226.365 175.045
C 226.984 176.031 228.494 176.647 229.207 177.74
C 230.995 180.481 230.649 184.753 228.764 187.341
C 228.017 188.367 226.701 188.992 226.049 189.97
C 229.997 192.391 231.737 197.317 229.32 201.632
C 228.572 202.967 226.66 203.738 226.135 204.982
C 232.173 208.352 231.241 215.849 226.364 219.65
C 226.393 220.011 227.615 220.616 227.934 220.901
C 228.949 221.802 229.587 222.936 229.938 224.243
C 230.604 226.73 230.454 229.899 228.873 232.031
C 228.189 232.953 226.64 233.616 226.267 234.592
C 230.767 236.315 231.505 243.236 229.143 246.853
C 228.374 248.031 227.259 248.721 226.136 249.5
C 227.196 250.568 228.523 251.327 229.289 252.677
C 230.812 255.36 230.824 259.713 228.874 262.215
C 228.072 263.244 226.822 263.527 226.027 264.456
C 230.129 266.434 231.763 272.153 229.55 276.179
C 229.012 277.159 226.809 278.555 226.727 279.44
C 231.753 282.633 231.178 289.431 227.187 293.301
C 225.372 295.06 223.215 295.683 220.849 296.339
C 220.79 299.789 220.759 303.239 220.741 306.688
C 223.567 306.798 226.426 306.685 229.257 306.682
C 229.977 306.682 231.984 307.01 232.537 306.547
C 232.847 304.788 233.14 303.07 234.185 301.571
C 238.293 295.674 246.244 295.508 250.27 301.478
C 250.469 301.554 251.539 299.858 251.737 299.638
C 252.71 298.555 253.817 297.634 255.168 297.058
C 260.047 294.976 263.724 298.054 266.722 301.444
C 268.007 299.655 269.318 298.022 271.405 297.107
C 275.703 295.225 280.497 297.902 282.524 301.798
C 282.893 301.574 283.338 300.474 283.625 300.084
C 284.238 299.251 285.079 298.518 285.923 297.927
C 288.83 295.889 292.991 296.188 295.875 298.125
C 297.127 298.965 297.798 300.263 298.91 301.151
C 301.961 296.957 306.846 294.982 311.469 298.05
C 312.818 298.945 313.718 300.287 314.715 301.524
C 315.103 301.5 315.357 300.654 315.525 300.377
C 316.167 299.317 317.272 298.388 318.316 297.747
C 321.413 295.842 325.553 296.101 328.409 298.334
C 329.508 299.193 330.072 300.352 330.97 301.344
C 333.291 297.843 337.742 295.017 341.977 297.137
C 343.683 297.991 344.362 299.607 345.621 300.882
C 346.026 301.292 346.939 301.099 347.489 301.344
C 347.724 304.383 349.893 307.041 349.869 310.202
C 348.144 310.146 346.371 310.166 344.643 310.224
C 344.479 308.596 345.1 306.872 344.474 305.297
C 342.693 300.819 337.245 298.738 334.311 303.392
C 332.884 305.655 334.542 307.92 333.839 310.122
C 332.024 310.199 330.168 310.174 328.351 310.175
C 328.475 307.39 328.656 304.377 326.632 302.172
C 324.093 299.406 320.103 300.519 318.367 303.513
C 317.437 305.117 317.351 308.404 317.809 310.179
C 315.98 310.046 314.103 310.245 312.269 310.227
C 312.369 308.255 312.564 306.176 311.695 304.339
C 310.045 300.85 305.762 299.032 302.936 302.399
C 301.752 303.809 301.303 305.337 301.488 307.165
C 301.546 307.738 302.141 309.64 301.856 310.101
C 299.995 310.128 298.14 310.146 296.28 310.201
C 296.101 307.013 296.823 303.749 293.918 301.509
C 288.584 297.395 284.028 305.494 285.678 310.129
C 283.833 310.238 281.978 310.159 280.13 310.225
C 279.872 306.821 280.247 302.822 276.471 301.005
C 271.364 298.549 267.018 306.019 269.727 310.119
C 267.938 309.968 266.039 310.028 264.242 310.146
C 263.734 308.031 264.421 305.917 263.439 303.863
C 261.318 299.426 255.937 299.741 253.644 303.904
C 252.522 305.941 253.9 308.131 253.264 310.146
C 251.465 310.184 249.651 310.225 247.854 310.229
C 248.048 308.854 248.358 307.049 247.979 305.684
C 247.755 304.877 247.338 304.167 246.879 303.473
C 244.5 299.87 240.238 300.145 237.809 303.642
C 236.586 305.401 236.403 308.627 237.19 310.624
C 234.554 310.163 231.402 310.605 228.715 310.607
C 224.96 310.608 221.111 310.19 217.37 310.494
C 216.558 309.654 217.113 306.693 217.112 305.506
C 217.108 300.914 217.28 296.306 217.244 291.721
C 219.38 291.484 221.591 292.141 223.566 291.001
C 227.007 289.015 227.398 283.831 223.493 282.064
C 221.606 281.21 219.569 282.134 217.666 281.778
C 217.688 280.275 217.741 278.726 217.653 277.226
C 217.881 276.656 220.184 277.09 220.86 277.055
C 223.326 276.929 226.054 275.632 226.494 272.912
C 227.345 267.659 221.685 266.672 217.867 266.999
C 217.295 265.678 217.783 263.534 217.738 262.11
C 220.207 261.695 222.668 262.51 224.766 260.673
C 227.329 258.431 226.565 254.726 223.791 253.046
C 222.017 251.972 219.723 251.981 217.714 252.105
C 217.405 250.608 217.47 248.706 217.654 247.191
C 219.639 247.284 222.103 247.549 223.877 246.463
C 227.213 244.42 227.35 239.762 223.885 237.777
C 222.034 236.718 219.76 237.182 217.737 237.128
C 217.618 235.524 217.649 233.892 217.728 232.286
C 219.561 232.303 221.975 232.599 223.652 231.703
C 226.564 230.149 227.449 225.62 224.566 223.593
C 222.51 222.148 219.956 222.528 217.623 222.212
C 217.598 220.653 217.658 219.04 217.504 217.493
C 219.874 216.665 222.667 217.976 224.672 215.975
C 227.004 213.647 226.768 209.519 223.741 207.947
C 222.051 207.069 219.815 207.23 217.978 207.399
C 217.157 206.751 217.442 203.29 217.755 202.313
C 219.695 202.384 222.371 202.532 224.102 201.493
C 226.949 199.785 226.948 195.234 224.246 193.33
C 222.388 192.02 219.788 192.293 217.642 192.176
C 217.428 190.556 217.492 188.935 217.448 187.307
C 219.715 186.292 222.238 187.904 224.493 186.039
C 227.234 183.772 226.82 179.437 223.457 177.917
C 221.816 177.176 219.67 177.378 217.918 177.475
C 217.113 176.831 217.678 173.453 217.591 172.425
C 219.78 172.148 222.089 172.905 224.008 171.454
C 226.768 169.368 226.626 165.063 223.753 163.073
C 221.997 161.857 219.346 161.925 217.303 162.13
C 216.602 161.064 217.131 158.323 217.136 157.008
C 217.154 152.408 217.177 147.804 217.117 143.206 Z"
opacity="1" fill="rgb(48,80,81)" fill-rule="evenodd" />
<path d="
M 233.342 374.484
C 233.459 374.317 233.576 374.149 233.693 373.981
C 235.008 373.045 236.476 373.246 238.009 373.242
C 241.007 373.235 244.008 373.211 247.006 373.24
C 248.618 373.256 250.325 372.961 251.499 374.278
C 252.75 375.682 252.209 378.076 252.087 379.775
C 252.924 379.742 253.991 378.132 254.657 377.59
C 256.556 376.041 258.59 374.755 260.855 373.809
C 270.657 369.718 284.56 371.725 290.429 381.229
C 291.313 380.619 291.998 379.361 292.841 378.618
C 295.537 376.241 298.418 374.314 301.876 373.235
C 305.235 372.186 308.743 371.749 312.258 371.807
C 315.104 371.854 317.927 372.276 320.645 373.128
C 322.356 373.664 323.95 374.448 325.484 375.371
C 336.272 381.856 335.171 395.849 335.137 406.679
C 335.127 409.707 335.058 412.735 335.05 415.764
C 335.036 421.013 334.965 426.259 334.961 431.51
C 334.959 433.67 335.562 436.608 334.727 438.654
C 333.965 440.519 332.104 440.37 330.408 440.355
C 327.224 440.327 324.04 440.361 320.857 440.318
C 319.072 440.294 317.413 440.363 316.184 438.88
C 315.748 437.908 315.917 436.634 315.916 435.581
C 315.911 433.053 316.079 430.528 316.089 427.999
C 316.123 419.102 316.959 409.704 315.987 400.86
C 315.777 398.955 315.816 397.039 315.126 395.212
C 313.48 390.859 309.826 388.435 305.19 388.62
C 299.538 388.845 295.8 393.364 294.471 398.571
C 293.528 402.264 293.856 406.228 293.856 410.003
C 293.855 416.337 293.853 422.67 293.843 429.003
C 293.839 431.891 294.695 436.326 293.444 438.977
C 292.619 440.726 290.529 440.396 288.92 440.384
C 285.614 440.358 282.309 440.422 279.003 440.431
C 277.327 440.436 275.546 440.371 274.865 438.556
C 274.064 431.533 274.747 424.07 274.748 417.003
C 274.749 412.505 274.751 408.008 274.685 403.511
C 274.643 400.624 274.698 397.516 273.579 394.8
C 271.075 388.717 263.108 386.693 257.887 390.941
C 253.354 394.631 252.487 400.672 252.414 406.144
C 252.322 413.098 252.434 420.057 252.455 427.011
C 252.465 430.258 252.606 433.515 252.582 436.76
C 252.571 438.262 252.094 439.828 250.493 440.288
C 246.624 440.483 242.702 440.336 238.825 440.345
C 236.923 440.349 234.921 440.43 233.529 438.922
C 232.884 437.325 233.254 434.949 233.254 433.241
C 233.253 428.994 233.275 424.748 233.272 420.502
C 233.266 410.169 233.269 399.835 233.258 389.502
C 233.254 386.168 233.254 382.835 233.244 379.501
C 233.239 377.867 233.008 376.089 233.342 374.484 Z"
opacity="1" fill="rgb(43,74,76)" fill-rule="evenodd" />
<path d="
M 237.98 173.118
C 238.305 170.191 238.018 167.147 238.147 164.201
C 241.727 163.907 245.407 164.254 249.004 164.255
C 257.004 164.257 265.004 164.271 273.004 164.238
C 299.671 164.127 326.34 164.297 353.007 164.271
C 362.34 164.262 371.674 164.339 381.007 164.303
C 383.503 164.293 386.004 164.318 388.499 164.243
C 389.151 164.223 390.432 163.966 390.901 164.411
C 391.423 186.362 390.949 208.389 391.067 230.353
C 391.097 235.75 390.92 241.164 390.882 246.564
C 390.874 247.689 390.785 248.885 390.903 250.002
C 390.921 250.169 391.194 251.291 391.093 251.362
C 389.914 250.978 388.691 250.565 387.496 250.267
C 386.662 249.433 387.098 245.907 387.082 244.727
C 387.014 239.654 387.127 234.576 387.126 229.503
C 387.123 215.668 387.065 201.834 387.092 187.999
C 387.105 181.429 386.836 174.764 387.181 168.21
C 351.32 167.589 315.366 167.927 279.499 168.093
C 270.332 168.136 261.164 168.226 251.997 168.24
C 249.663 168.243 247.329 168.256 244.996 168.26
C 243.955 168.263 242.823 168.057 241.984 168.72
C 241.63 207.193 241.746 245.678 241.598 284.156
C 242.835 285.121 246.747 284.536 248.407 284.575
C 254.934 284.726 261.476 284.634 268.005 284.602
C 283.6 284.526 299.191 284.601 314.778 284.578
C 323.505 284.566 332.453 284.063 341.155 284.639
C 341.641 285.624 343.04 287.732 342.98 288.78
C 327.357 289.187 311.635 288.576 296.001 288.587
C 276.662 288.601 257.231 289.158 237.91 288.453
C 237.452 287.646 237.69 286.415 237.718 285.501
C 237.779 283.502 237.799 281.501 237.834 279.502
C 237.965 272.003 237.955 264.501 237.944 257
C 237.915 238 237.846 218.999 237.9 199.998
C 237.925 191.066 237.546 182.038 237.98 173.118 Z"
opacity="1" fill="rgb(40,75,74)" fill-rule="evenodd" />
<path d="
M 249.461 459.347
C 249.843 458.793 253.037 459.152 253.717 459.281
C 253.37 464.624 253.739 470.133 253.738 475.496
C 253.737 478.223 253.206 481.525 253.724 484.187
C 252.371 483.857 250.682 484.242 249.279 484.115
C 249.245 475.861 249.437 467.6 249.461 459.347 Z"
opacity="1" fill="rgb(46,82,79)" fill-rule="evenodd" />
<path d="
M 250.707 225.901
C 255.503 221.851 263.693 222.426 269.492 223.446
C 281.804 225.612 294.406 231.352 304.212 239.116
C 307.72 241.894 313.041 245.333 314.507 249.783
C 314.996 251.268 314.533 252.741 314.689 254.225
C 313.257 254.648 311.251 253.41 309.991 252.814
C 308.033 251.887 305.619 251.092 304.063 249.526
C 301.941 247.393 300.861 244.292 299.07 241.897
C 298.028 240.503 296.962 239.014 295.702 237.805
C 295.397 237.513 294.327 236.492 293.971 236.829
C 295.616 239.795 297.65 242.871 299.608 245.649
C 300.149 246.416 302.016 248.047 302.11 248.949
C 302.175 249.579 301.075 249.036 300.871 248.954
C 299.637 248.458 298.426 247.958 297.212 247.414
C 294.538 246.216 290.682 244.931 288.604 242.83
C 286.105 238.92 284.6 232.623 280.427 230.222
C 281.3 233.232 283.32 236.415 284.944 239.098
C 285.398 239.849 287.085 241.879 286.852 242.76
C 285.854 242.912 284.442 241.315 283.534 240.839
C 280.233 239.109 276.189 237.679 273.338 235.249
C 272.503 232.78 271.399 230.719 270.037 228.495
C 269.928 228.316 268.011 226.152 268.076 227.28
C 268.108 227.832 268.91 228.751 269.207 229.227
C 269.985 230.478 270.727 231.735 271.371 233.054
C 271.653 233.631 272.186 234.215 272.01 234.871
C 270.719 234.68 269.725 233.812 268.545 233.312
C 266.222 232.329 263.925 231.255 261.584 230.325
C 260.176 229.766 259.061 228.985 257.498 229.203
C 259.284 231.394 263.168 232.51 265.643 233.847
C 266.505 234.312 268.239 234.604 268.636 235.51
C 266.945 236.954 263.489 236.292 262.018 238.048
C 261.907 239.143 263.367 238.392 263.929 238.217
C 265.727 237.657 268.67 235.989 270.519 236.204
C 273.621 236.566 277.151 239.272 279.836 240.767
C 281.032 241.433 282.34 241.98 283.462 242.761
C 283.54 242.815 284.649 243.583 284.342 243.756
C 283.53 244.213 281.96 243.655 281 243.845
C 278.347 244.37 275.702 245.049 273.098 245.775
C 273.307 247.282 274.415 246.725 275.571 246.385
C 277.828 245.722 280.234 245.166 282.563 244.829
C 283.664 244.67 284.909 244.195 286.022 244.284
C 288.862 244.51 291.529 246.5 294.066 247.64
C 295.3 248.195 297.057 248.588 298.091 249.424
C 297.254 250.284 295.662 250.185 294.548 250.431
C 291.535 251.097 287.665 251.605 284.974 253.143
C 285.369 254.306 287.531 253.446 288.486 253.318
C 290.97 252.985 293.421 252.341 295.819 251.633
C 297.104 251.253 298.318 250.512 299.644 250.322
C 301.638 250.768 303.447 251.788 305.31 252.591
C 307.934 253.722 310.689 254.529 313.298 255.682
C 313.869 256.265 312.603 256.503 312.12 256.655
C 310.554 257.146 308.905 257.561 307.312 257.971
C 301.322 259.515 295.961 259.356 289.953 258.062
C 277.543 255.389 265.198 247.622 257.432 237.623
C 254.76 234.182 251.552 230.286 250.707 225.901 Z"
opacity="1" fill="rgb(42,75,76)" fill-rule="evenodd" />
<path d="
M 260.489 483.672
C 261.777 481.065 262.618 478.142 263.715 475.441
C 265.927 469.995 268.369 464.639 270.692 459.241
C 272.326 459.196 274.04 458.936 275.66 459.208
C 278.6 465.377 281.181 471.781 283.817 478.092
C 284.414 479.521 284.963 480.987 285.619 482.389
C 285.78 482.733 286.527 483.778 286.384 484.116
C 284.952 484.218 283.521 483.989 282.093 484.028
C 280.739 482.553 280.505 480.073 279.505 478.351
C 278.294 478.011 276.767 478.215 275.504 478.202
C 272.8 478.174 270.062 478.026 267.362 478.169
C 266.267 480.026 265.483 482.082 264.759 484.11
C 263.373 484.363 261.785 484.017 260.372 484.043
C 260.411 483.919 260.45 483.796 260.489 483.672 Z
M 268.885 473.531
C 268.68 474.191 268.802 473.814 268.512 474.66
C 271.476 475.079 274.952 474.976 277.933 474.718
C 278.043 473.899 277.232 472.744 276.915 471.988
C 276.085 470.01 275.194 468.05 274.422 466.049
C 274.114 465.251 273.838 463.918 272.993 463.656
C 271.576 466.938 270.226 470.216 268.885 473.531 Z"
opacity="1" fill="rgb(45,80,80)" fill-rule="evenodd" />
<path d="
M 273.519 174.662
C 277.917 174.657 282.72 176.411 286.72 178.146
C 299.665 183.762 309.007 193.584 314.703 206.46
C 317.733 213.309 320.04 222.36 317.785 229.798
C 316.641 230.118 314.977 226.412 314.464 225.527
C 313.622 224.074 311.751 222.273 311.725 220.536
C 311.687 217.973 312.54 215.061 312.855 212.498
C 313.013 211.205 313.482 209.891 312.7 208.714
C 311.567 212.176 311.384 216.026 310.183 219.42
C 309.839 219.648 309.324 218.9 309.122 218.671
C 308.075 217.488 307.244 216.088 306.332 214.8
C 305.625 213.803 304.115 212.277 303.873 211.062
C 303.728 210.336 304.202 209.288 304.308 208.564
C 304.6 206.573 304.791 204.57 304.957 202.565
C 305.098 200.867 305.118 199.202 304.956 197.507
C 304.884 196.745 304.171 196.262 303.76 197.108
C 303.712 200.119 303.008 203.087 302.976 206.092
C 302.966 207.054 303.446 208.894 302.543 209.494
C 301.245 208.309 300.232 206.204 299.183 204.751
C 297.799 202.834 296.043 201.11 294.808 199.1
C 294.667 198.161 295.186 197.467 295.31 196.537
C 295.682 193.748 296.426 187.163 293.499 185.951
C 294.06 188.802 293.718 191.618 293.813 194.5
C 293.834 195.115 294.056 197.099 293.396 197.357
C 292.122 196.541 291.165 194.785 290.235 193.597
C 288.053 190.809 285.919 187.978 283.623 185.275
C 282.859 184.375 282.232 183.322 281.324 182.562
C 281.071 182.351 280.314 181.404 280.126 182.042
C 282.189 185.828 284.647 189.143 287.345 192.502
C 288.206 193.574 290.341 195.43 290.485 196.821
C 287.089 196.866 283.724 193.594 280.144 194.453
C 280.757 195.832 281.719 195.567 283.018 195.968
C 285.726 196.805 288.926 197.191 291.485 198.372
C 292.77 198.966 293.698 200.33 294.578 201.383
C 296.78 204.019 298.56 206.993 300.707 209.671
C 301.309 210.494 297.462 209.199 296.639 208.995
C 293.708 208.27 290.519 206.882 287.53 206.601
C 288.472 208.284 290.05 208.651 291.804 209.138
C 295.019 210.031 298.352 210.52 301.542 211.498
C 303.894 213.374 305.406 216.638 307.201 219.028
C 307.756 219.766 309.419 220.699 309.246 221.737
C 308.409 222.028 307.191 221.478 306.352 221.303
C 303.524 220.715 300.704 220.257 298.034 219.094
C 299.533 221.744 304.592 222.477 307.473 222.763
C 308.419 222.857 309.572 222.577 310.444 222.939
C 312.243 225.927 314.246 228.919 316.112 231.878
C 317.103 232.542 318.159 232.843 319.021 233.729
C 323.596 238.432 324.474 246.841 325.442 253.012
C 325.894 255.894 326.658 258.82 326.753 261.744
C 326.235 261.812 325.529 261.183 325.115 260.891
C 323.52 259.769 322.784 258.879 322.518 256.895
C 321.41 248.642 320.059 241.195 315.358 234.173
C 313.764 231.791 309.306 231.122 306.787 229.972
C 301.862 227.722 297.597 224.786 293.697 221.031
C 286.452 214.055 280.883 205.53 277.798 195.954
C 275.593 189.11 275.153 181.657 273.519 174.662 Z"
opacity="1" fill="rgb(43,76,75)" fill-rule="evenodd" />
<path d="
M 293.154 459.225
C 294.685 459.157 296.22 458.895 297.748 459.125
C 301.262 462.958 304.311 467.561 307.368 471.775
C 308.658 473.553 309.829 475.968 311.545 477.356
C 311.72 477.204 311.546 476.321 311.531 476.14
C 311.444 475.025 311.459 473.96 311.507 472.841
C 311.701 468.317 311.559 463.779 311.771 459.259
C 313.044 458.959 314.392 459.096 315.683 459.209
C 316.519 461.36 315.904 464.704 315.904 467.005
C 315.906 472.604 316.33 478.362 315.892 483.941
C 314.49 483.889 313.138 484.031 311.745 484.11
C 310.651 483.463 309.632 481.324 308.798 480.28
C 306.471 477.364 303.995 474.531 301.815 471.503
C 300.729 469.993 299.689 468.416 298.529 466.967
C 298.176 466.527 297.562 465.083 297.159 465.785
C 297.474 470.152 297.253 474.616 297.24 478.995
C 297.236 480.385 297.737 482.778 297.176 484.033
C 295.871 484.006 294.483 484.057 293.18 484.164
C 292.838 475.88 293.803 467.491 293.154 459.225 Z"
opacity="1" fill="rgb(44,80,79)" fill-rule="evenodd" />
<path d="
M 322.963 483.634
C 326.282 475.544 328.997 466.838 333.09 459.113
C 334.658 458.87 336.377 458.807 337.954 458.957
C 340.452 462.634 341.907 467.334 343.609 471.428
C 345.321 475.548 347.514 479.66 348.911 483.887
C 347.472 483.785 345.762 484.444 344.382 484.096
C 344.062 482.496 343.047 479.65 342.047 478.384
C 338.025 478.06 333.94 478.307 329.909 478.2
C 328.888 479.422 328.527 481.082 327.922 482.531
C 327.725 483.006 327.683 483.814 327.205 484.062
C 325.735 484.106 324.205 483.933 322.748 484.091
C 322.82 483.939 322.891 483.786 322.963 483.634 Z
M 331.384 473.534
C 331.175 474.194 331.299 473.813 331.008 474.675
C 334.154 474.995 337.685 474.131 340.757 474.76
C 340.061 474.044 339.814 472.692 339.464 471.778
C 338.761 469.943 337.872 468.192 337.091 466.392
C 336.66 465.396 336.402 464.041 335.344 463.614
C 334.126 466.919 332.716 470.262 331.384 473.534 Z"
opacity="1" fill="rgb(44,80,79)" fill-rule="evenodd" />
<path d="
M 324.934 215.601
C 325.669 210.955 326.541 206.369 328.241 201.963
C 333.736 187.717 346.044 177.96 360.634 174.127
C 361.092 179.635 361.852 185.282 361.506 190.821
C 360.796 202.172 356.558 213.29 349.515 222.233
C 346.714 225.79 343.451 229.331 339.312 231.315
C 337.884 232 336.395 232.653 334.868 233.087
C 334.13 233.297 333.486 233.159 333.202 233.959
C 335.459 235.23 337.896 235.982 340.266 236.997
C 346.912 239.842 353.7 242.357 360.412 245.038
C 375.43 251.037 390.273 257.47 405.209 263.671
C 410.526 265.878 415.955 267.824 421.222 270.153
C 423.065 270.968 425.219 271.479 426.881 272.626
C 427.047 273.644 426.228 273.955 425.519 274.436
C 423.969 275.486 422.224 276.239 420.575 277.126
C 415.448 279.884 410.245 282.518 405.168 285.368
C 403.669 286.209 400.297 287.35 399.549 288.914
C 406.755 295.184 413.404 302.354 420.264 309.018
C 422.162 310.861 424.027 312.738 425.935 314.57
C 426.782 315.383 428.085 316.291 428.46 317.431
C 428.095 319.494 425.725 321.008 424.274 322.354
C 421.764 324.685 419.332 327.089 416.88 329.482
C 415.388 330.939 413.852 332.703 411.987 333.687
C 411.15 333.57 410.271 332.341 409.707 331.75
C 407.908 329.862 406.132 327.948 404.354 326.039
C 397.704 318.9 391.409 311.167 384.29 304.501
C 380.21 310.857 376.534 317.668 372.909 324.297
C 371.816 326.294 370.299 330.934 367.924 331.659
C 365.816 329.133 364.994 325.162 363.795 322.14
C 361.008 315.119 358.219 308.102 355.377 301.103
C 349.822 287.422 344.141 273.715 338.15 260.219
C 335.939 255.239 333.864 250.202 331.672 245.213
C 330.439 242.407 328.673 239.407 328.114 236.377
C 328.395 235.238 329.452 234.403 329.935 233.324
C 330.776 231.445 331.576 227.848 333.242 226.557
C 334.02 225.953 335.287 225.737 336.196 225.376
C 338.641 224.402 341.053 223.351 343.478 222.334
C 344.704 221.82 346.746 221.095 346.763 219.562
C 343.649 220.713 340.536 221.911 337.447 223.125
C 336.361 223.551 335.252 224.87 334.122 224.043
C 334.584 221.645 336.674 218.986 337.834 216.805
C 338.41 215.723 338.79 214.309 339.709 213.45
C 340.742 212.484 342.729 211.938 344.029 211.413
C 346.2 210.537 348.524 209.856 350.599 208.758
C 351.592 208.232 352.692 207.933 352.616 206.675
C 349.612 207.047 346.633 209.004 343.826 210.106
C 342.766 210.522 341.81 211.306 340.636 211.171
C 341.032 209.439 342.153 207.922 342.944 206.344
C 343.952 204.332 344.81 201.926 346.151 200.125
C 348.349 198.176 352.256 197.48 354.916 196.25
C 355.816 195.834 357.677 195.03 357.229 193.722
C 354.146 194.807 350.994 196.879 347.831 197.478
C 348.168 195.729 349.463 194.182 350.288 192.637
C 352.128 189.191 354.413 185.49 355.487 181.718
C 354.031 181.98 353.319 183.729 352.634 184.879
C 350.904 187.781 349.261 190.748 347.737 193.767
C 347.428 194.377 346.016 198.234 345.237 197.649
C 344.373 194.904 344.141 192.198 343.504 189.397
C 343.177 187.961 343.741 186.887 342.069 186.672
C 341.803 187.64 342.186 188.971 342.328 189.976
C 342.674 192.41 343.144 194.812 343.556 197.236
C 343.696 198.061 344.219 198.932 344.094 199.763
C 343.178 202.453 341.396 205.043 340.095 207.571
C 339.736 208.27 339.5 210.26 338.676 210.484
C 336.762 208.167 336.637 204.095 335.69 201.327
C 335.26 200.071 335.874 197.97 334.309 198.261
C 334.313 201.751 334.848 204.694 335.849 208.037
C 336.304 209.559 337.37 211.284 337.308 212.906
C 337.226 215.066 335.353 217.626 334.357 219.486
C 333.844 220.444 333.627 221.683 332.836 222.443
C 332.183 222.405 331.813 220.714 331.621 220.094
C 331.047 218.241 330.428 216.407 330.025 214.506
C 329.799 213.445 329.903 212.501 328.805 212.088
C 328.342 214.789 328.961 217.701 329.795 220.273
C 330.191 221.493 330.996 222.802 331.195 224.061
C 331.44 225.607 330.354 227.511 329.796 228.909
C 329.468 229.729 328.219 233.573 327.23 233.376
C 326.136 232.319 325.834 230.087 325.555 228.638
C 324.73 224.341 324.341 219.964 324.934 215.601 Z"
opacity="1" fill="rgb(44,75,76)" fill-rule="evenodd" />
<path d="
M 346.477 355.098
C 346.812 350.693 349.762 346.474 354.113 345.167
C 361.325 343.002 369.76 348.417 369.186 356.3
C 368.886 360.429 366.145 364.802 362.091 366.179
C 354.776 368.664 345.854 363.306 346.477 355.098 Z"
opacity="1" fill="rgb(42,75,77)" fill-rule="evenodd" />
<path d="
M 348.001 375.608
C 348.07 374.942 348.168 374.393 348.547 373.834
C 349.789 372.977 351.386 373.178 352.829 373.136
C 356.211 373.038 359.602 373.144 362.984 373.216
C 364.388 373.245 366.321 373.184 367.01 374.73
C 367.532 375.9 367.134 377.744 367.13 378.997
C 367.121 382.164 367.089 385.331 367.076 388.497
C 367.028 400.003 366.969 411.502 366.974 423.011
C 366.976 426.677 366.955 430.343 366.965 434.01
C 366.969 435.359 367.435 437.508 366.837 438.768
C 366.129 440.262 364.271 440.264 362.882 440.253
C 359.38 440.227 355.878 440.301 352.375 440.292
C 350.833 440.288 349.115 440.377 348.185 438.886
C 347.493 437.778 347.858 435.568 347.864 434.3
C 347.883 430.365 347.901 426.43 347.911 422.496
C 347.928 416.162 347.93 409.828 347.935 403.495
C 347.943 394.219 347.751 384.872 348.001 375.608 Z"
opacity="1" fill="rgb(41,73,74)" fill-rule="evenodd" />
<path d="
M 366.275 478.417
C 367.265 477.944 368.084 477.567 369.211 477.667
C 370.064 478.49 370.694 479.589 371.732 480.205
C 374.665 481.947 382.361 482.012 382.381 477.226
C 382.391 474.885 379.257 474.152 377.457 473.721
C 372.759 472.597 364.875 470.892 367.084 464.079
C 368.753 458.932 375.6 457.927 380.196 459.154
C 383.184 459.952 385.754 461.731 385.978 465.023
C 385.533 465.519 383.442 465.607 382.745 465.52
C 381.903 464.674 381.424 463.632 380.332 463.04
C 377.779 461.656 370.429 461.749 370.931 466.019
C 371.215 468.431 374.53 469.122 376.455 469.538
C 381.061 470.534 386.662 471.857 386.397 477.578
C 386.362 478.341 386.263 479.112 385.995 479.832
C 383.999 485.187 375.975 485.101 371.484 483.88
C 368.97 483.197 366.298 481.277 366.275 478.417 Z"
opacity="1" fill="rgb(40,76,78)" fill-rule="evenodd" />
<path d="
M 376.96 403.606
C 378.175 395.211 379.833 387.754 385.658 381.221
C 395.831 369.814 416.715 368.248 427.631 379.356
C 427.725 379.324 427.427 377.435 427.408 377.204
C 427.318 376.115 427.765 374.477 428.659 373.796
C 429.665 373.03 431.422 373.318 432.6 373.29
C 435.733 373.216 438.869 373.286 442.003 373.219
C 443.553 373.185 445.219 372.838 446.479 373.938
C 447.682 374.99 447.202 376.668 447.145 378.083
C 447.007 381.548 447.097 385.032 447.096 388.499
C 447.089 401.337 446.979 414.174 446.957 427.012
C 446.952 429.675 446.919 432.34 446.98 435.003
C 447.026 436.99 447.243 438.659 445.477 440.012
C 444.332 440.549 442.732 440.261 441.499 440.249
C 438.53 440.218 435.561 440.249 432.592 440.242
C 431.291 440.239 429.522 440.492 428.521 439.456
C 427.145 438.033 427.695 435.456 427.426 433.69
C 426.286 434.251 425.046 436.176 423.905 437.014
C 420.758 439.324 416.743 440.902 412.891 441.484
C 409.908 441.935 406.94 441.753 403.95 441.515
C 401.315 441.305 398.634 440.698 396.155 439.777
C 381.632 434.385 375.739 418.077 376.96 403.606 Z
M 396.409 403.1
C 395.486 410.118 397.11 418.05 403.221 422.327
C 408.648 426.126 417.186 425.881 422.288 421.632
C 425.388 419.051 427.193 414.977 427.717 411.048
C 428.56 404.736 427.438 397.273 422.448 392.829
C 412.802 384.24 398.034 390.753 396.409 403.1 Z"
opacity="1" fill="rgb(43,74,75)" fill-rule="evenodd" />
<path d="
M 393.999 460.103
C 393.98 459.58 393.928 459.864 394.288 459.288
C 395.623 459.28 396.947 459.202 398.283 459.218
C 398.466 462.686 398.281 466.185 398.347 469.66
C 399.158 470.031 400.599 469.745 401.5 469.744
C 403.999 469.74 406.502 469.791 409 469.735
C 409.647 469.72 412.102 470.028 412.507 469.597
C 412.573 467.188 412.6 464.773 412.582 462.362
C 412.575 461.405 412.342 460.138 412.78 459.313
C 414.11 459.309 415.434 459.272 416.766 459.308
C 416.968 465.518 416.728 471.778 416.75 477.994
C 416.755 479.526 416.883 481.082 416.815 482.609
C 416.801 482.94 416.932 483.797 416.68 484.012
C 415.433 483.881 414.089 483.899 412.842 484.033
C 412.467 483.021 412.683 481.831 412.675 480.762
C 412.659 478.411 412.466 475.951 412.704 473.621
C 408.166 472.904 403.235 473.434 398.65 473.495
C 397.191 476.607 399.349 480.948 398.383 484.134
C 397.041 484.311 395.332 484.198 394.032 483.851
C 393.512 475.979 393.928 467.986 393.999 460.103 Z"
opacity="1" fill="rgb(41,76,77)" fill-rule="evenodd" />
<path d="
M 424.962 468.598
C 426.677 458.507 440.522 455.84 447.697 462.013
C 451.252 465.07 452.01 470.466 451.2 474.845
C 449.491 484.095 436.84 487.378 429.599 482.254
C 425.404 479.286 424.141 473.423 424.962 468.598 Z
M 429.393 468.573
C 428.513 472.045 429.245 476.941 432.206 479.282
C 436.982 483.058 445.496 480.633 446.878 474.609
C 447.713 470.968 446.947 466.556 443.864 464.166
C 439.061 460.441 430.945 462.449 429.393 468.573 Z"
opacity="1" fill="rgb(42,77,78)" fill-rule="evenodd" />
<path d="
M 458.962 459.317
C 461.961 459.013 465.038 459.188 468.051 459.241
C 470.806 459.289 473.621 459.257 475.98 460.888
C 481.244 464.528 480.378 473.394 474.527 475.893
C 471.132 477.343 466.968 476.712 463.378 476.984
C 463.078 478.619 463.281 480.396 463.291 482.05
C 463.293 482.422 463.412 483.687 463.196 483.972
C 461.886 483.869 460.475 483.88 459.173 484.028
C 458.237 483.049 458.803 479.106 458.808 477.751
C 458.835 471.605 458.873 465.46 458.962 459.317 Z
M 463.306 462.885
C 463.34 466.305 463.322 469.804 463.182 473.225
C 463.948 473.645 465.254 473.39 466.117 473.385
C 468.468 473.371 472.055 473.886 473.865 472.032
C 475.757 470.093 475.65 464.789 473.013 463.423
C 470.322 462.029 466.197 462.875 463.306 462.885 Z"
opacity="1" fill="rgb(41,76,77)" fill-rule="evenodd" />
<path d="
M 459.959 375.599
C 460.514 372.122 465.898 373.27 468.505 373.267
C 470.84 373.264 473.175 373.261 475.509 373.266
C 476.895 373.269 478.093 373.283 478.898 374.6
C 479.813 376.096 479.306 378.431 479.391 380.076
C 480.289 379.499 480.869 378.428 481.663 377.698
C 483.879 375.657 487.023 373.882 489.948 373.148
C 493.327 372.3 496.847 371.947 500.328 372.128
C 503.054 372.269 505.775 372.7 508.347 373.644
C 510.162 374.31 511.871 375.362 513.359 376.588
C 523 384.532 522.137 397.225 522.14 408.498
C 522.141 411.332 522.14 414.165 522.143 416.998
C 522.149 421.831 522.172 426.664 522.184 431.498
C 522.189 433.817 522.643 436.646 521.909 438.873
C 520.683 440.485 518.846 440.328 517.003 440.285
C 513.851 440.212 510.696 440.23 507.544 440.282
C 505.863 440.309 504.088 440.395 503.377 438.528
C 503.05 435.235 503.293 431.81 503.292 428.502
C 503.291 422.169 503.291 415.836 503.284 409.503
C 503.279 404.918 503.774 399.839 502.077 395.481
C 499.539 388.963 491.539 386.888 485.779 390.65
C 483.258 392.296 481.448 395.219 480.452 398.01
C 479.047 401.947 479.294 406.132 479.277 410.242
C 479.251 416.328 479.287 422.414 479.284 428.5
C 479.283 430.976 479.272 433.453 479.311 435.928
C 479.334 437.374 479.508 438.742 478.249 439.719
C 477.126 440.591 475.364 440.356 474.036 440.347
C 470.651 440.326 467.266 440.451 463.881 440.403
C 462.506 440.383 460.746 440.316 460.223 438.75
C 459.599 436.884 459.913 434.144 459.91 432.199
C 459.903 427.798 459.929 423.398 459.929 418.997
C 459.93 404.561 459.578 390.02 459.959 375.599 Z"
opacity="1" fill="rgb(42,74,75)" fill-rule="evenodd" />
<path d="
M 530.965 401.603
C 532.247 394.032 534.203 387.076 539.638 381.32
C 546.225 374.345 555.581 371.786 564.923 372.214
C 571.075 372.496 577.456 374.747 581.088 379.964
C 581.385 377.979 580.884 376.013 582.03 374.202
C 583.202 373.044 585.006 373.304 586.538 373.276
C 589.827 373.214 593.117 373.192 596.406 373.135
C 597.867 373.11 599.637 373.058 600.416 374.606
C 601.051 375.868 600.593 378.123 600.596 379.494
C 600.605 383.328 600.59 387.162 600.587 390.995
C 600.579 401.996 600.562 412.996 600.583 423.996
C 600.59 427.164 600.586 430.332 600.609 433.5
C 600.622 435.229 600.926 437.199 600.402 438.868
C 599.301 440.37 597.709 440.324 595.999 440.292
C 592.841 440.234 589.685 440.199 586.526 440.158
C 585.116 440.139 583.546 440.194 582.406 439.264
C 581.346 437.702 581.928 435.484 581.619 433.723
C 580.348 434.628 579.347 436.039 578.098 437.025
C 575.665 438.943 572.631 440.122 569.654 440.861
C 566.437 441.66 563.178 441.692 559.889 441.511
C 556.366 441.318 552.919 440.605 549.619 439.337
C 534.577 433.558 529.288 416.445 530.965 401.603 Z
M 549.999 406.128
C 549.782 411.582 551.486 417.595 555.706 421.293
C 561.725 426.568 571.986 426.144 577.385 420.161
C 580.296 416.936 581.469 412.734 581.623 408.47
C 581.823 402.961 580.811 397.597 576.944 393.439
C 571.116 387.173 560.486 387.442 554.654 393.536
C 551.401 396.934 550.181 401.537 549.999 406.128 Z"
opacity="1" fill="rgb(42,74,75)" fill-rule="evenodd" />

</svg>